<?xml version="1.0" encoding="UTF-8" standalone="no"?>
<svg
   version="1.1"
   id="Layer_1"
   x="0px"
   y="0px"
   width="100%"
   viewBox="0 0 1200 1200"
   enable-background="new 0 0 1200 1200"
   xml:space="preserve"
   sodipodi:docname="file.svg"
   inkscape:version="1.2.2 (b0a8486541, 2022-12-01)"
   xmlns:inkscape="http://www.inkscape.org/namespaces/inkscape"
   xmlns:sodipodi="http://sodipodi.sourceforge.net/DTD/sodipodi-0.dtd"
   xmlns="http://www.w3.org/2000/svg"
   xmlns:svg="http://www.w3.org/2000/svg"><defs
   id="defs104" /><sodipodi:namedview
   id="namedview102"
   pagecolor="#ffffff"
   bordercolor="#000000"
   borderopacity="0.25"
   inkscape:showpageshadow="2"
   inkscape:pageopacity="0"
   inkscape:pagecheckerboard="0"
   inkscape:deskcolor="#d1d1d1"
   showgrid="false"
   inkscape:zoom="0.92866691"
   inkscape:cx="622.39754"
   inkscape:cy="510.40906"
   inkscape:window-width="1920"
   inkscape:window-height="991"
   inkscape:window-x="0"
   inkscape:window-y="0"
   inkscape:window-maximized="1"
   inkscape:current-layer="Layer_1" />

<path
   fill="#d5570b"
   opacity="1"
   stroke="none"
   d="m 379.56769,865.99207 c -20.33575,-8.53446 -86.23398,-20.22611 -86.54532,-40.65058 -1.38244,-27.62954 38.09225,-9.21045 55.81366,-6.34161 50.84074,10.84451 96.89678,10.53931 144.15829,14.33844 -0.45121,-26.20428 -1.45854,-55.70662 -4.23435,-79.45746 25.28796,-15.93922 7.15072,83.29195 29.84027,79.74841 1.08411,-0.74676 2.01373,-2.20172 2.33136,-3.50116 6.16352,-33.83942 10.87095,-64.55672 15.12335,-95.41699 2.88915,-7.39837 2.60848,-37.46593 9.8562,-37.9281 3.93396,0.32312 4.32349,4.323 3.92676,7.255 -5.60024,44.35554 -14.78264,88.53873 -19.25427,130.7414 h 80.56653 c 0.21053,-26.24992 -0.92801,-54.83789 -1.01005,-78.46222 -25.20574,-52.20214 -62.66122,-91.6273 -88.12891,-135.1347 -4.33856,35.40779 -2.03711,69.9059 -2.00128,102.87109 0.002,1.48981 -0.0616,3.02386 0.25305,4.46118 1.09241,4.98999 -0.0661,7.78394 -4.87555,8.61981 -7.54785,1.31183 -15.20074,2.35694 -22.84116,2.63428 -3.11322,0.11298 -6.49398,-1.75067 -9.38159,-3.37524 -1.21557,-0.68384 -2.07171,-3.07483 -2.07458,-4.69166 -0.10456,-58.50506 -0.0609,-117.01031 -0.15332,-175.51538 34.08537,-30.16006 69.6021,44.99052 82.16031,62.42237 1.95105,2.69458 3.93579,5.36578 5.83825,8.0943 8.29346,11.89386 16.59095,23.78515 24.82917,35.71728 -5.92867,41.22249 16.39203,-336.55969 7.29931,-310.64978 -12.71632,86.06784 -23.56665,166.54757 -36.14923,246.14166 -0.27881,1.73139 -1.32709,4.27796 -2.58874,4.68415 -1.7359,0.55877 -4.32233,-0.0954 -5.92743,-1.1601 4.55249,-140.10805 40.01704,-283.96181 45.67865,-409.46072 1.31148,-36.6114 -0.51124,-70.93278 33.91327,-61.8053 2.13171,0.57459 4.35321,1.2406 4.22528,5.13384 -0.48511,14.76211 -0.19525,29.54968 -0.19525,45.73606 2.41479,-1.57206 3.2326,-2.48878 4.16894,-2.63227 1.82629,-0.27993 4.42828,-0.93944 5.47321,-0.0268 104.02246,51.82235 194.46681,463.42195 157.36303,448.81781 -66.0718,5.99069 -107.21014,36.07364 -135.10376,82.15045 -1.25142,15.36865 -22.1394,16.48759 -13.94793,5.21344 30.30335,-168.3765 30.47796,-380.23233 -16.36829,-519.97385 6.16353,220.13823 3.19208,440.19423 9.86031,633.24631 0.20362,5.73443 2.33875,7.50305 8.0232,7.17053 88.91892,1.83308 293.3563,-109.71933 291.65914,-7.92779 -155.56518,43.34351 -315.75587,76.82102 -454.5718,62.74841 -4.34797,-0.47974 -8.59073,-1.84985 -12.9296,-2.49262 -38.22326,-3.02237 -70.7597,-13.27752 -104.07916,-21.34191 z"
   id="path79"
   sodipodi:nodetypes="cccccccccccccccsssscccccccscccscscccccccccccc" />
<path
   fill="#d5570b"
   opacity="1"
   stroke="none"
   d="m 799.03685,1023.7845 c 10.22033,-3.9153 20.27856,-7.2121 29.89813,-11.4944 9.36456,-4.1691 18.10358,-9.7422 27.46326,-13.9244 5.08453,-2.2719 9.07135,-6.04023 14.30828,-8.27813 7.05817,-3.0162 12.95069,-8.79 19.27893,-13.4677 2.19745,-1.62433 4.22046,-4.26172 7.14673,-1.81512 2.82831,2.36462 3.51227,5.60229 1.41559,8.80882 -2.66961,4.083 -5.62445,7.9799 -8.47217,11.9458 -174.47398,128.69873 -357.50353,115.14183 -502.78314,-4.7478 -4.2518,-3.5959 -4.5061,-7.1647 0.40335,-11.65947 124.35509,47.1509 238.31622,86.5126 353.37314,61.1895 12.14478,-2.6665 24.25189,-5.571 36.23663,-8.8746 7.26264,-2.0018 14.26044,-4.9644 21.73127,-7.6825 z"
   id="path81"
   sodipodi:nodetypes="ccsssssccccsc" />
<path
   fill="#d5570b"
   opacity="1"
   stroke="none"
   d="m 340.91397,941.79908 c -1.26407,-1.01599 -1.66187,-5.04657 -0.67932,-6.42096 1.17529,-1.64398 4.4035,-2.88836 6.48324,-2.57653 195.58239,55.64526 406.1845,32.44643 584.95954,-5.37665 1.52527,1.06555 1.91839,3.83868 2.63757,5.92511 -149.05555,132.66845 -426.93184,84.99675 -593.40103,8.44903 z"
   id="path83"
   sodipodi:nodetypes="cscccc" />
<path
   fill="#D5570B"
   opacity="1.000000"
   stroke="none"
   d=" M429.250763,622.647461   C432.538422,623.277527 435.656433,623.143311 438.311829,624.186584   C440.170837,624.916992 442.669189,627.238586 442.691406,628.879211   C442.798553,636.788330 442.504181,644.747742 441.583527,652.599060   C441.304260,654.980408 439.595123,658.311401 435.174652,656.285828   C433.215698,655.388184 430.400909,656.533325 427.992157,656.409546   C420.616577,656.030518 413.254028,655.178955 405.878174,655.070496   C391.082031,654.852722 376.280426,655.005737 360.993774,655.005737   C360.993774,660.541260 361.055969,665.718872 360.975342,670.894165   C360.902435,675.573792 360.547699,680.250916 360.549377,684.929077   C360.551025,689.475098 360.762634,694.027466 361.106262,698.559998   C361.157959,699.241516 362.358734,700.251465 363.153595,700.390503   C366.993927,701.061768 370.873199,701.891235 374.745972,701.929810   C391.266266,702.094604 407.791718,701.827576 424.309875,702.077637   C431.795898,702.190979 439.270233,703.129333 446.747650,703.721313   C449.355469,703.927734 451.079315,704.904846 451.035400,708.001953   C450.920959,716.076965 451.151184,724.159546 450.909882,732.229065   C450.762939,737.142578 446.349640,736.893494 443.317352,736.881409   C427.195312,736.817200 411.075989,736.254517 394.953400,736.085938   C379.085693,735.920105 363.214203,736.121948 347.346405,735.959900   C339.068604,735.875427 330.795654,735.343140 322.519073,735.055115   C321.905487,735.033752 321.279999,735.352783 320.383240,735.585266   C318.007904,729.383423 318.643219,722.825378 318.796814,716.176453   C319.118103,702.265686 318.656372,688.338684 318.828613,674.422119   C318.971283,662.893188 319.564941,651.369873 319.950287,639.843750   C319.994781,638.512207 319.997742,637.178833 319.997864,635.846313   C320.000458,609.322449 320.004028,582.798584 319.989746,556.274719   C319.988831,554.618958 319.943115,552.951233 319.744171,551.310181   C319.307159,547.705078 320.633362,545.365479 324.385406,545.045166   C327.031860,544.819275 329.715820,544.924500 332.378418,545.015747   C340.972351,545.310425 349.577057,545.474121 358.153717,546.046265   C370.288513,546.855713 382.394897,548.087769 394.528229,548.924500   C399.250000,549.250061 404.014496,548.896545 408.755249,549.018738   C419.283264,549.290039 429.807800,549.695312 440.335327,549.988831   C446.445709,550.159302 447.472443,551.574036 447.098663,557.540344   C446.723267,563.531250 447.225342,569.575439 446.893768,575.571472   C446.758392,578.019775 445.927460,580.738098 444.547638,582.735962   C442.531921,585.654541 440.386139,582.718567 438.172058,582.293945   C434.467529,581.583435 430.538635,582.031189 426.704071,582.013672   C422.525665,581.994568 418.347107,581.998413 414.168640,581.996582   C398.333038,581.989563 382.497437,581.994263 366.661896,581.962769   C365.112122,581.959656 363.562836,581.737183 361.387787,581.567810   C361.259888,582.942017 361.022186,584.336304 361.017578,585.731445   C360.984985,595.589417 361.154694,605.451172 360.928284,615.304077   C360.830597,619.556335 363.015778,620.880371 366.586853,620.979065   C380.352997,621.359436 394.120911,621.679016 407.888763,621.994324   C414.886353,622.154541 421.885254,622.257324 429.250763,622.647461  z"
   id="path85" />
<path
   fill="#d5570b"
   opacity="1"
   stroke="none"
   d="m 309.32504,873.5553 c -0.66168,-6.82813 4.36984,-9.99414 12.22562,-7.31159 128.29808,40.61388 278.04444,53.35181 401.40259,48.65789 73.3704,-6.19087 147.87742,-28.24113 211.8927,-52.56219 2.63733,-0.94892 6.48651,1.47027 9.77917,2.34283 0.20282,0.77521 0.40564,1.55048 0.60852,2.32575 -2.76819,2.52899 -5.64142,4.95343 -8.28466,7.60693 -81.3069,54.01648 -203.03201,71.39652 -291.35059,75.34534 -73.3822,1.22666 -155.26241,-10.48718 -220.42404,-28.03119 -40.2579,-11.66324 -81.71182,-29.52539 -115.84931,-48.37378 z"
   id="path87"
   sodipodi:nodetypes="ccccccccccc" />
<path
   fill="#d5570b"
   opacity="1"
   stroke="none"
   d="m 285.25513,543.98206 c 2.6644,0.11169 3.83456,1.14599 3.79001,3.96502 -1.42581,7.29329 4.69124,29.50022 -5.48493,29.80207 -27.82426,-0.72672 -54.23914,-1.93432 -79.88211,-3.30323 -9.98654,7.46194 -5.27036,44.98686 -0.0266,45.5614 23.09716,0.87234 46.09442,1.14878 67.54478,2.07526 14.24595,2.29601 9.97287,20.10277 9.2044,31.9312 -18.19048,9.72335 -56.12854,1.16415 -77.21931,0.9433 -1.22853,-0.0137 -2.45131,-0.54462 -4.57825,-1.05133 -3.55345,20.55317 -1.40628,43.99332 -1.71226,62.42157 -0.12584,7.07501 1.62353,14.57568 -2.6312,20.67041 -5.39927,0 -10.50108,0.0612 -15.60084,-0.0147 -7.25733,-0.10803 -14.56032,0.0846 -21.73721,-0.75854 -1.84531,-0.21674 -4.72319,-3.85413 -4.69144,-5.88202 0.22752,-14.53662 1.08792,-29.06324 1.73413,-43.59363 0.0592,-1.33057 0.0341,-2.66528 0.0342,-3.99805 0.002,-20.6607 -0.12568,-41.32238 0.0418,-61.98175 0.13172,-16.25183 0.57785,-32.50207 0.97907,-48.75061 0.22871,-9.26251 0.657,-18.52002 0.977,-27.78033 37.31254,-15.55092 90.44675,-1.85494 129.25878,-0.25598 z"
   id="path89"
   sodipodi:nodetypes="cccccccccccsssssssccc" />
<path
   fill="#d5570b"
   opacity="1"
   stroke="none"
   d="m 923.75037,658.54883 c 5.99713,-17.75393 11.62776,-37.08777 16.35052,-53.91077 3.04865,-10.8891 5.68457,-21.90686 9.18366,-32.64587 0.70837,-2.1742 4.48297,-4.77112 6.81927,-4.74732 10.1908,0.10382 20.40924,0.79602 30.52966,2.00867 9.00421,3.48927 13.41652,23.4714 16.02062,31.0719 7.2629,24.49527 54.2765,140.63511 44.7794,142.61829 -9.174,-0.43396 -18.3361,-1.17865 -27.4842,-2.0019 -0.99,-0.0891 -2.3394,-1.40112 -2.7033,-2.43426 -3.8066,-8.36135 -11.5574,-42.44774 -18.38717,-43.35089 -12.57636,-0.62342 -25.17322,-0.84589 -37.76484,-1.14246 -3.81561,-0.0899 -7.63513,-0.014 -10.92138,-0.014 -3.36713,9.65387 -6.76953,18.87763 -9.771,28.22999 -1.58118,4.92669 -2.60321,10.05023 -3.60382,15.13879 -5.30228,7.99759 -21.06854,4.33922 -29.09375,4.6893 -4.91211,0.22418 -7.74707,-2.00244 -6.6181,-6.73224 7.25606,-25.76807 15.36486,-53.49288 22.66443,-76.77722 m 48.53869,-50.64533 c -0.37359,1.3e-4 -0.74725,3.1e-4 -1.12091,4.3e-4 -4.7713,18.46936 -9.5426,36.93878 -14.70599,56.92603 h 35.68335 c -5.99896,-19.18401 -13.8379,-40.07945 -19.85645,-56.92646 z"
   id="path91"
   sodipodi:nodetypes="ccsscccsccscsccccccccc" />
<path
   fill="#d5570b"
   opacity="1"
   stroke="none"
   d="m 557.16846,262.53314 c -17.17048,85.71048 -42.13602,174.22526 -56.13752,248.41413 -3.22994,14.18569 -1.05664,20.66033 -11.48193,29.79956 -0.88107,-2.17768 -2.74231,-4.49439 -2.45703,-6.50672 0.81451,-5.74524 2.6105,-11.34363 3.82382,-17.04162 16.92766,-99.14175 47.10801,-203.82846 65.78867,-293.88503 3.93013,-8.36703 -106.47701,-31.61527 -101.5882,-35.30156 49.41879,0.61412 95.05719,-31.10708 137.84955,-38.2874 9.04645,61.36344 23.69868,92.65269 -27.7103,78.16585 -2.99389,12.43089 -5.18627,23.63784 -8.08703,34.64279 z"
   id="path93"
   sodipodi:nodetypes="cccsccccccc" />
<path
   fill="#d5570b"
   opacity="1"
   stroke="none"
   d="m 876.31574,739.95941 c -8.47461,0.17395 -16.95527,0.11627 -25.43274,0.0629 -3.88587,-0.0244 -4.80646,-2.79547 -4.85572,-5.9541 -0.43908,-56.06277 -2.65178,-111.84353 -3.99672,-163.67829 -0.16303,-6.33435 1.03863,-7.37469 7.45111,-7.38598 8.9566,-0.0158 17.91321,-0.004 27.63641,-0.004 0.50179,21.15826 15.78932,176.24571 -0.8023,176.95941 z"
   id="path95"
   sodipodi:nodetypes="csccsccc" />
<path
   fill="#d5570b"
   opacity="1"
   stroke="none"
   d="m 692.47339,679.77943 c 2.6878,-3.07355 0.53456,-5.20323 3.26806,-8.68007 22.08568,-28.09167 24.41193,11.47581 29.41974,16.13902 32.16037,34.85317 89.76182,6.06086 93.09157,31.02387 -14.39689,48.18128 -146.90968,1.28871 -125.77937,-38.48282 z"
   id="path97"
   sodipodi:nodetypes="csccc" />

</svg>
